<?xml version="1.0" encoding="utf-8"?>
<!-- Generator: Adobe Illustrator 27.5.0, SVG Export Plug-In . SVG Version: 6.00 Build 0)  -->
<svg version="1.1" id="Layer_2" xmlns="http://www.w3.org/2000/svg" xmlns:xlink="http://www.w3.org/1999/xlink" x="0px" y="0px"
	 viewBox="0 0 2000 2000" style="enable-background:new 0 0 2000 2000;" xml:space="preserve">
<g>
	<g>
		<linearGradient id="SVGID_1_" gradientUnits="userSpaceOnUse" x1="666.9729" y1="1267.0212" x2="1479.6455" y2="779.4168">
			<stop  offset="0.3587" style="stop-color:#9B2626"/>
			<stop  offset="0.5152" style="stop-color:#A42826"/>
			<stop  offset="0.7746" style="stop-color:#BE2F26"/>
			<stop  offset="0.9916" style="stop-color:#D83526"/>
		</linearGradient>
		<path style="fill:url(#SVGID_1_);" d="M1367.662,714.143l-488.43-209.286c0,0-81.366-32.532-133.748-30.739
			c-52.382,1.793-106.574,36.439-117.852,56.072c-11.278,19.633-18.875,62.505-18.875,62.505S598.004,727.699,598.4,816.782
			c0.396,89.084,4.234,311.709,4.234,311.709s-13.18,105.897,20.739,163.604c33.919,57.707,132.86,111.41,132.86,111.41
			l355.259,220.035c0,0,89.675,64.753,110.137,67.192c20.462,2.438,52.736-9.817,57.062-40.621s-1.19-86.202-1.19-86.202
			s30.812,7.477,41.871,11.235s84.228,28.959,97.551-6.36c13.323-35.319,5.968-105.69,5.968-105.69s-10.972-127.802,10.686-141.816
			c21.658-14.014,48.667-25.35,46.254-85.266c-2.413-59.917,9.461-150.723,0.151-180.169c-9.31-29.446-25.281-33.439-34.764-35.435
			c-9.483-1.996-5.24-62.884-5.24-62.884s5.706-147.284-4.01-179.697C1426.252,745.414,1388.924,723.253,1367.662,714.143"/>
		<path style="fill:none;stroke:#D1654A;stroke-width:5;stroke-linecap:round;stroke-miterlimit:10;stroke-dasharray:22;" d="
			M693.06,571.762c0,0,33.421-21.644,75.812-6.381c34.117,12.284,389.568,171.293,527.019,232.895
			c32.771,14.687,53.943,47.408,54.093,83.588l0.917,220.181"/>
		
			<ellipse transform="matrix(0.9452 -0.3266 0.3266 0.9452 -341.7087 422.514)" style="fill:#3F0000;" cx="1087.49" cy="1228.944" rx="50.81" ry="76.375"/>
		<path style="fill:#CD4426;" d="M1446.715,1035.006c0,0,20.961,24.33,7.112,45.292c-13.85,20.962-115.288,83.097-157.211,91.332
			c-41.923,8.235-72.616,20.587-158.708-27.325c-86.092-47.912-122.026-76.734-150.473-59.89c0,0,16.787-44.3,63.043-27.952
			c46.256,16.348,141.705,70.998,192.986,76.613c51.281,5.615,123.418-35.424,140.582-42.927
			c17.164-7.503,43.984-21.603,48.155-29.513C1436.371,1052.727,1446.715,1035.006,1446.715,1035.006z"/>
		<path style="fill:#CD4426;" d="M1271.064,853.351c-4.686-20.141-20.937-29.176-54.359-46.606
			c-33.422-17.43-495.428-210.015-516.368-226.528c-20.94-16.513-8.235-47.163,38.18-42.339
			c-71.868-18.383-97.321,40.093-71.868,61.055c25.453,20.961,403.508,187.156,500.829,226.084
			c97.321,38.928,108.55,97.321,108.55,97.321S1275.75,873.492,1271.064,853.351z"/>
		<path style="fill:none;stroke:#3F0000;stroke-width:18;stroke-miterlimit:10;" d="M1276.029,1128.491V879.74
			c0-29.456-17.8-55.986-45.058-67.149c-132.178-54.131-511.029-210.11-533.253-228.63c-26.95-22.459,23.582-72.991,126.892-28.073
			c83.657,36.372,394.84,172.886,510.208,223.509c26.374,11.573,43.398,37.644,43.398,66.445v246.856"/>
		<path style="fill:none;stroke:#3F0000;stroke-width:18;stroke-miterlimit:10;" d="M1274.906,1417.178l4.09,226.598
			c0.658,36.451-39.292,59.174-70.286,39.978l-523.292-324.109c-48.554-30.073-78.753-82.519-80.381-139.608
			c-4.987-174.845-13.323-547.234,2.845-641.691c9.868-57.649,52.643-84.551,95.776-96.817
			c47.635-13.546,98.544-9.679,144.065,9.826l535.607,229.501c34.203,13.622,56.646,46.719,56.646,83.534v230.176
			c0,18.911-11.198,36.028-28.527,43.603l-110.158,48.153c-31.078,13.585-66.474,13.275-97.308-0.853l-141.474-64.819
			c-43.152-19.771-92.342,11.526-92.715,58.99l-1.124,142.705c-0.199,25.292,14.191,48.434,36.962,59.443l201.347,97.345
			c20.69,10.003,45.009,9.01,64.815-2.646l174.171-102.502c17.917-10.544,29.098-29.614,29.549-50.398l4.304-197.982
			c0.362-16.655-8.064-32.273-22.183-41.116l-14.289-8.949"/>
		<path style="fill:none;stroke:#3F0000;stroke-width:18;stroke-miterlimit:10;" d="M1422.89,1327.567v218.474
			c0,31.543-30.998,53.748-60.864,43.599l-84.526-28.725"/>
		<path style="fill:none;stroke:#3F0000;stroke-width:18;stroke-miterlimit:10;" d="M1277.5,1538.455l58.631,15.986
			c20.91,5.701,41.37-10.461,40.664-32.123l-5.361-164.468"/>
	</g>
	<g>
		<path style="fill:#FFCC2E;" d="M1126.998,459.548c0,0-29.102-29.388-76.993-32.69c-47.891-3.302-77.109-5.939-97.358,20.008
			c-20.25,25.947-60.73,78.155-39.372,139.212c21.358,61.057,35.953,100.941,77.603,104.912
			c41.65,3.971,86.077,24.387,120.721-10.068c34.644-34.455,49.318-59.686,49.031-99.511c-0.287-39.825-5.787-72.837-12.068-86.092
			C1142.282,482.065,1126.998,459.548,1126.998,459.548z"/>
		<path style="fill:#FF920C;" d="M1111.599,680.922c34.644-34.455,49.318-59.686,49.031-99.511
			c-0.287-39.825-5.787-72.837-12.068-86.092c-6.281-13.255-21.564-35.771-21.564-35.771s-28.386-28.635-75.205-32.536l8.595,18.79
			c0,0,40.527,41.429,41.377,86.351c0.849,44.922-7.546,106.319-31.342,127.622c-23.796,21.303-44.958,14.121-32.231,37.837
			c0.2,0.373,0.403,0.734,0.604,1.101C1064.83,702.552,1090.099,702.305,1111.599,680.922z"/>
		
			<ellipse style="fill:none;stroke:#3F0000;stroke-width:18;stroke-miterlimit:10;" cx="1007.079" cy="558.133" rx="96.484" ry="134.752"/>
		<path style="fill:none;stroke:#3F0000;stroke-width:18;stroke-miterlimit:10;" d="M1008.165,423.381l56.894,4.728
			c53.287,0,96.484,60.331,96.484,134.752c0,74.422-43.197,134.752-96.484,134.752l-57.981-4.728"/>
		<g>
			<path style="fill:#3F0000;" d="M999.116,589.159v-30.521c-8.054-7.323-13.961-14.815-17.72-22.477
				c-3.76-7.661-5.641-15.426-5.641-23.292c0-7.964,2.126-13.439,6.38-16.422c4.253-2.984,9.912-2.868,16.98,0.346v-7.212
				l8.938,5.109v7.212c6.533,4.657,11.731,10.263,15.594,16.817c3.862,6.554,6.328,13.779,7.397,21.674l-15.595-6.511
				c-0.945-6.27-3.411-11.564-7.396-15.881v28.481c9.861,8.795,16.58,16.725,20.155,23.796c3.574,7.069,5.362,14.537,5.362,22.405
				c0,8.79-2.25,14.91-6.749,18.36c-4.5,3.45-10.756,3.565-18.769,0.345v13.622l-8.938-5.109v-13.258
				c-7.109-5.082-12.882-11.515-17.319-19.296c-4.438-7.781-7.273-16.807-8.507-27.08l16.087,7.156
				c0.657,4.262,1.89,8.317,3.699,12.166C994.884,583.439,996.898,586.63,999.116,589.159z M999.116,512.674
				c-2.425-0.414-4.356,0.131-5.794,1.642c-1.439,1.508-2.157,3.672-2.157,6.488c0,2.575,0.657,5.341,1.972,8.301
				c1.315,2.963,3.307,5.885,5.979,8.772V512.674z M1008.054,595.289c3.082,1.082,5.587,0.825,7.519-0.766
				c1.931-1.59,2.897-4.207,2.897-7.849c0-3.253-0.811-6.522-2.435-9.807c-1.624-3.283-4.283-6.612-7.981-9.989V595.289z"/>
		</g>
	</g>
	<g>
		<path style="fill:#FFCC2E;" d="M1403.768,464.432c0,0-29.102-29.388-76.993-32.69c-47.891-3.302-77.109-5.939-97.358,20.008
			c-20.25,25.947-60.73,78.155-39.372,139.212c21.358,61.057,35.953,100.941,77.603,104.912
			c41.65,3.971,86.077,24.388,120.721-10.068c34.644-34.455,49.318-59.686,49.031-99.51c-0.287-39.825-5.787-72.837-12.068-86.092
			C1419.052,486.948,1403.768,464.432,1403.768,464.432z"/>
		<path style="fill:#FF920C;" d="M1388.369,685.805c34.644-34.455,49.318-59.686,49.031-99.51
			c-0.287-39.825-5.787-72.837-12.068-86.092c-6.281-13.255-21.565-35.771-21.565-35.771s-28.386-28.634-75.205-32.535l8.595,18.79
			c0,0,40.527,41.43,41.377,86.351c0.849,44.922-7.546,106.319-31.342,127.622c-23.796,21.303-44.958,14.121-32.231,37.837
			c0.2,0.373,0.403,0.734,0.604,1.101C1341.6,707.436,1366.869,707.188,1388.369,685.805z"/>
		
			<ellipse style="fill:none;stroke:#3F0000;stroke-width:18;stroke-miterlimit:10;" cx="1283.849" cy="563.017" rx="96.484" ry="134.752"/>
		<path style="fill:none;stroke:#3F0000;stroke-width:18;stroke-miterlimit:10;" d="M1284.935,428.265l56.894,4.728
			c53.287,0,96.484,60.331,96.484,134.752c0,74.422-43.197,134.752-96.484,134.752l-57.981-4.728"/>
		<g>
			<path style="fill:#3F0000;" d="M1275.886,594.043v-30.52c-8.054-7.323-13.961-14.815-17.72-22.477
				c-3.76-7.661-5.641-15.426-5.641-23.292c0-7.964,2.126-13.439,6.38-16.422c4.253-2.984,9.912-2.868,16.98,0.346v-7.212
				l8.938,5.109v7.212c6.533,4.657,11.731,10.263,15.594,16.817c3.862,6.554,6.328,13.779,7.397,21.674l-15.595-6.511
				c-0.945-6.27-3.411-11.564-7.396-15.881v28.481c9.861,8.795,16.58,16.725,20.155,23.796c3.574,7.069,5.362,14.537,5.362,22.405
				c0,8.79-2.25,14.91-6.749,18.36c-4.5,3.45-10.755,3.565-18.769,0.345v13.622l-8.938-5.109v-13.258
				c-7.109-5.082-12.882-11.515-17.319-19.296c-4.438-7.781-7.273-16.806-8.507-27.08l16.087,7.156
				c0.657,4.262,1.89,8.317,3.699,12.166C1271.654,588.322,1273.668,591.513,1275.886,594.043z M1275.886,517.557
				c-2.425-0.414-4.356,0.131-5.794,1.642c-1.439,1.508-2.157,3.673-2.157,6.489c0,2.575,0.657,5.341,1.972,8.301
				c1.315,2.963,3.307,5.885,5.979,8.772V517.557z M1284.824,600.172c3.082,1.082,5.587,0.825,7.519-0.766
				c1.931-1.59,2.897-4.207,2.897-7.849c0-3.253-0.811-6.522-2.435-9.807c-1.624-3.283-4.283-6.612-7.981-9.989V600.172z"/>
		</g>
	</g>
</g>
</svg>
